<svg xmlns="http://www.w3.org/2000/svg" class="icon-inner" viewBox="0 0 300 66.3" width="300"  height="66.3" >
							<g id="icon-logoWhite"><path d="M185.1,25.9a14.6485,14.6485,0,0,1-5.7-1.2l.3,3.6a22.508,22.508,0,0,0,6,.6c3.6,0,6.6-2.1,6.6-5.1,0-2.1-1.5-3.3-3.3-4.2l-3-.9a2.1913,2.1913,0,0,1-1.8-2.1c0-1.2,1.2-1.8,3-1.8a7.3077,7.3077,0,0,1,4.5,1.5V13a16.996,16.996,0,0,0-4.5-.9c-4.2.3-7.2,2.1-7.2,5.1,0,1.8.9,3.3,3.6,4.2l2.4.9c1.2.6,1.8.9,1.8,1.8S186.6,25.9,185.1,25.9Z" transform="translate(0 -7)" fill="#ffffff"></path><path d="M166.5,22.9h2.1l4.5,6h4.8l-5.7-7.2a4.9691,4.9691,0,0,0,3.3-4.5c0-3.3-3.3-4.8-7.2-4.8a30.2213,30.2213,0,0,0-5.7.6V28.9h3.9Zm.3-7.8h1.5c3,0,3.6.9,3.6,2.4a3.1505,3.1505,0,0,1-1.5,2.7h-3.6Z" transform="translate(0 -7)" fill="#ffffff"></path><polygon points="179.7 48.3 182.7 48.3 186.9 40.2 189.9 48.3 193.2 48.3 199.8 32.1 196.2 32.1 192 42.9 188.1 32.1 183.9 32.1 185.4 36.3 182.1 42.9 178.2 32.1 174 32.1 179.7 48.3" fill="#ffffff"></polygon><polygon points="138.3 21.6 145.2 5.4 140.7 5.4 136.8 15.6 133.2 5.4 129 5.4 135.6 21.6 138.3 21.6" fill="#ffffff"></polygon><polygon points="171 48.3 171 32.1 167.1 32.1 167.1 38.4 159.6 38.4 159.6 32.1 155.7 32.1 155.7 48.3 159.6 48.3 159.6 41.4 167.1 41.4 167.1 48.3 171 48.3" fill="#ffffff"></polygon><polygon points="158.7 21.6 159.9 18.9 152.1 18.9 152.1 15 157.5 15 158.7 12.3 152.1 12.3 152.1 8.4 158.7 8.4 159.9 5.7 148.2 5.7 148.2 21.9 158.7 21.9 158.7 21.6" fill="#ffffff"></polygon><polygon points="260.7 35.1 261.9 32.4 250.2 32.4 250.2 48.6 260.7 48.6 260.7 48.3 261.9 45.6 254.1 45.6 254.1 41.7 259.5 41.7 260.7 39 254.1 39 254.1 35.1 260.7 35.1" fill="#ffffff"></polygon><path d="M245.7,25.9c3.3,0,5.7-2.1,5.7-5.1s-2.4-5.1-5.7-5.1-5.7,2.1-5.7,5.1S242.1,25.9,245.7,25.9Zm0-8.4c2.1,0,3,1.5,3,3.3,0,2.1-1.2,3.3-3,3.3-2.1,0-3-1.5-3-3.3C242.4,18.7,243.6,17.5,245.7,17.5Z" transform="translate(0 -7)" fill="#ffffff"></path><polygon points="256.2 14.4 259.2 14.4 260.1 12.6 256.2 12.6 256.2 10.2 260.1 10.2 260.7 8.4 253.8 8.4 253.8 18.6 256.2 18.6 256.2 14.4" fill="#ffffff"></polygon><path d="M270,49.3h2.1l4.2,6h4.8l-5.7-7.2a4.9691,4.9691,0,0,0,3.3-4.5c0-3.3-3.3-4.8-7.2-4.8a30.2213,30.2213,0,0,0-5.7.6V55.3H270Zm0-7.8h1.2c3,0,3.6.9,3.6,2.4a3.1505,3.1505,0,0,1-1.5,2.7H270Z" transform="translate(0 -7)" fill="#ffffff"></path><polygon points="225 21.9 229.2 21.9 229.2 15 235.5 5.7 230.7 5.7 230.7 5.4 227.1 11.1 223.8 5.4 219.3 5.4 225 15 225 21.9" fill="#ffffff"></polygon><path d="M223.5,52a14.6485,14.6485,0,0,1-5.7-1.2l.3,3.6c1.5,1.2,3.6,1.2,5.4,1.2,3.6,0,6.6-2.1,6.6-5.1,0-2.1-1.5-3.3-3.3-4.2l-2.7-1.2a2.1913,2.1913,0,0,1-1.8-2.1c0-1.2,1.2-1.8,3-1.8a7.3077,7.3077,0,0,1,4.5,1.5V39.4a16.996,16.996,0,0,0-4.5-.9c-3.9,0-6.9,1.8-6.9,4.8,0,1.8.9,3.3,3.6,4.2l2.4.9c1.2.6,1.8.9,1.8,1.8S225,52,223.5,52Z" transform="translate(0 -7)" fill="#ffffff"></path><polygon points="242.1 48.3 242.1 34.8 246.9 34.8 248.1 32.1 233.4 32.1 233.4 34.8 238.2 34.8 238.2 48.3 242.1 48.3" fill="#ffffff"></polygon><polygon points="208.8 21.9 212.7 21.9 212.7 8.4 217.5 8.4 218.7 5.7 204 5.7 204 8.4 208.8 8.4 208.8 21.9" fill="#ffffff"></polygon><polygon points="213.6 48.3 214.8 45.6 207 45.6 207 41.7 212.4 41.7 213.6 39 207 39 207 35.1 213.6 35.1 214.8 32.4 203.1 32.4 203.1 48.6 213.6 48.6 213.6 48.3" fill="#ffffff"></polygon><rect x="196.5" y="5.4" width="4.2" height="16.2" fill="#ffffff"></rect><path d="M108.9,63.1a13.4486,13.4486,0,0,0-3.6.3V73h2.4V69.4a6.6358,6.6358,0,0,0,3.6-.6,2.95,2.95,0,0,0,2.1-2.7C113.4,64,111.3,63.1,108.9,63.1Zm.9,4.8a16.9155,16.9155,0,0,0-2.1.3v-3l.9-.3c1.8,0,2.1.6,2.1,1.5A1.3859,1.3859,0,0,1,109.8,67.9Z" transform="translate(0 -7)" fill="#ffffff"></path><path d="M130.8,69.4c0,1.5-1.2,1.8-2.1,1.8-1.5,0-2.4-.6-2.4-1.8v-6h-3.6l1.2,1.2v4.5c0,1.8.3,2.7,1.5,3.3a4.9337,4.9337,0,0,0,3,.6,7.5279,7.5279,0,0,0,3-.6c1.2-.6,1.5-1.5,1.5-3.3v-6l-2.1.3Z" transform="translate(0 -7)" fill="#ffffff"></path><path d="M116.7,63.4l.3.6-3.9,9.3h1.8l.9-1.8H120l.6,1.8H123l-3.9-9.9Zm-.9,6.3,1.8-3.9,1.5,3.9Z" transform="translate(0 -7)" fill="#ffffff"></path><path d="M117.6,47.2c0-5.1-3.6-8.4-9.3-8.4S99,42.1,99,47.2s3.9,8.4,9.3,8.4S117.6,52.3,117.6,47.2Zm-14.4,0c0-3.3,1.8-5.4,5.1-5.4s5.1,2.1,5.1,5.4-1.8,5.4-5.1,5.4S103.2,50.5,103.2,47.2Z" transform="translate(0 -7)" fill="#ffffff"></path><polygon points="138 34.8 142.8 34.8 142.8 48.3 146.7 48.3 146.7 34.8 151.8 34.8 153 32.1 138 32.1 138 34.8" fill="#ffffff"></polygon><polygon points="296.4 32.1 296.4 41.4 287.7 32.1 282.9 32.1 284.7 34.2 284.7 48.3 288.3 48.3 288.3 37.8 297.9 48.3 300 48.3 300 32.1 296.4 32.1" fill="#ffffff"></polygon><rect x="121.8" y="5.4" width="4.2" height="16.2" fill="#ffffff"></rect><polygon points="138 56.4 135.6 56.4 135.6 66.3 141.3 66.3 141.9 64.5 138 64.5 138 56.4" fill="#ffffff"></polygon><path d="M97.5,71.5a.9.9,0,1,0,0,1.8.9579.9579,0,0,0,.9-.9A.7955.7955,0,0,0,97.5,71.5Z" transform="translate(0 -7)" fill="#ffffff"></path><rect x="153.3" y="60.6" width="146.7" height="1.2" fill="#ffffff"></rect><polygon points="100.8 21.9 104.4 21.9 104.4 11.4 114 21.9 116.1 21.9 116.1 5.7 112.5 5.7 112.5 15 103.8 5.7 99 5.7 100.8 7.8 100.8 21.9" fill="#ffffff"></polygon><polygon points="88.2 56.1 88.2 57.9 91.2 57.9 91.2 66 93.6 66 93.6 57.9 96.3 57.9 96.9 56.1 88.2 56.1" fill="#ffffff"></polygon><path d="M125.4,49.3h2.1l4.5,6h4.8l-5.7-7.2a4.9691,4.9691,0,0,0,3.3-4.5c0-3.3-3.3-4.8-7.2-4.8a30.2213,30.2213,0,0,0-5.7.6V55.3h3.9Zm.3-7.8h1.5c3,0,3.6.9,3.6,2.4a3.1505,3.1505,0,0,1-1.5,2.7h-3.6Z" transform="translate(0 -7)" fill="#ffffff"></path><path d="M79.8,22.3c0,3,.6,4.2,2.4,5.4a9.1928,9.1928,0,0,0,5.1,1.2,8.5837,8.5837,0,0,0,5.1-1.2c1.8-1.2,2.7-2.4,2.7-5.4V12.4H91.2v9.9c0,2.7-2.1,3-3.6,3-2.7,0-3.9-.9-3.9-3V12.4h-6l2.1,2.1Z" transform="translate(0 -7)" fill="#ffffff"></path><path d="M84.6,67.9l-1.8-.6c-.6-.3-1.2-.6-1.2-1.2s.9-1.2,1.8-1.2a3.3063,3.3063,0,0,1,2.7.9V63.7a7.1646,7.1646,0,0,0-2.7-.6c-2.4,0-4.2,1.2-4.2,3a2.7842,2.7842,0,0,0,2.1,2.7l1.5.6c.6.3,1.2.6,1.2,1.2s-.6,1.2-1.8,1.2a5.389,5.389,0,0,1-3.3-.9l.3,2.1a17.2167,17.2167,0,0,0,3.6.3c2.4,0,3.9-1.2,3.9-3A2.5456,2.5456,0,0,0,84.6,67.9Z" transform="translate(0 -7)" fill="#ffffff"></path><polygon points="79.5 48.3 83.1 48.3 83.1 37.8 92.7 48.3 94.8 48.3 94.8 32.1 91.2 32.1 91.2 41.4 82.5 32.1 77.7 32.1 79.5 34.2 79.5 48.3" fill="#ffffff"></polygon><path d="M0,12.7V37.3A35.3926,35.3926,0,0,0,20.1,68.8a27.8484,27.8484,0,0,0,7.8,3,40.1471,40.1471,0,0,0,7.8-2.7c11.7-5.7,20.4-18.3,20.4-31.8V12.7L27.9,7ZM40.5,43.6l-.9-.6c-1.8,0-2.4.9-2.4,3V59.2H35.1L21.9,48.7v6c0,2.1.3,3,2.4,3h.6v1.8H15.3V58h.6c2.1,0,2.7-.9,2.7-3V46.6l-5.7-4.5h5.7l15.3,12V46.6c0-2.1-.3-3-2.4-3h-.6V41.8h9.6ZM30.6,25.9a4.264,4.264,0,0,1,1.8.6c.3-.6,6.9-8.1,6.9-8.1l1.2.9s-3.3,9.9-3.6,10.2c.3.3.6.9.9,1.2.6-.3,6.6-1.8,6.6-1.8l.9,1.2L35.1,38.2a13.3411,13.3411,0,0,0-6-2.4c0-1.8.3-3.6.3-4.5A24.989,24.989,0,0,1,33,31V29.8l-4.2-.6a34.039,34.039,0,0,0-.3-4.2H27.3l-.6,4.2a30.983,30.983,0,0,1-4.2.3v1.2s2.1.3,3.9.6c0,.9.3,2.7.3,4.5-2.4.3-4.5.9-6,2.4L10.2,29.8l.6-1.2s6.3,1.5,6.6,1.8a5.5973,5.5973,0,0,0,1.2-.9c0-.6-3.3-10.5-3.3-10.5l1.2-.9s6.3,7.5,6.6,8.1c.6-.3,1.2-.3,1.8-.6L27,12.1h1.5Z" transform="translate(0 -7)" fill="#ffffff"></path></g>
						</svg>